<?xml version="1.0" encoding="UTF-8"?>
<svg width="121px" height="20px" viewBox="0 0 121 20" version="1.1" xmlns="http://www.w3.org/2000/svg" xmlns:xlink="http://www.w3.org/1999/xlink">
    <!-- Generator: Sketch 51.3 (57544) - http://www.bohemiancoding.com/sketch -->
    <title>bluehost-logo-white@2x</title>
    <desc>Created with Sketch.</desc>
    <defs></defs>
    <g id="Page-3" stroke="none" stroke-width="1" fill="none" fill-rule="evenodd">
        <g id="BH-Homepage-Desktop" transform="translate(-1069.000000, -3465.000000)" fill="#FFFFFF" fill-rule="nonzero">
            <g id="Footer" transform="translate(0.000000, 3365.000000)">
                <g id="Group-13" transform="translate(1067.000000, 100.000000)">
                    <g id="bluehost-logo-white" transform="translate(2.000000, 0.000000)">
                        <path d="M34.7266771,6.92857143 C37.5397816,6.92857143 40.2524181,8.82857143 40.2524181,13.4142857 C40.2524181,18.1571429 37.2096724,19.9571429 33.9372855,19.9571429 C32.100156,19.9571429 30.3921997,19.3857143 29.1291732,18.6571429 L29.1291732,0.0571428571 L30.5357254,0.0571428571 L30.5357254,8.52857143 C31.5834633,7.6 33.0474259,6.92857143 34.7266771,6.92857143 Z M33.85117,18.7142857 C36.4346334,18.7142857 38.8458658,17.2 38.8458658,13.4428571 C38.8315133,10.1142857 36.9800312,8.21428571 34.5975039,8.21428571 C32.9900156,8.21428571 31.526053,9.08571429 30.5357254,10.1714286 L30.5357254,17.8857143 C31.6982839,18.4714286 32.8321373,18.7142857 33.85117,18.7142857 Z M42.7210608,0.0428571429 L44.0702028,0.0428571429 L44.0702028,19.7428571 L42.7210608,19.7428571 L42.7210608,0.0428571429 Z M56.0689548,15.8714286 L56.0689548,7.12857143 L57.475507,7.12857143 L57.475507,19.7428571 L56.0689548,19.7428571 L56.0689548,17.3 C54.9638066,18.8571429 53.1840874,19.9285714 51.2608424,19.9285714 C49.2514821,19.9285714 47.3425897,18.8 47.3425897,14.9571429 L47.3425897,7.12857143 L48.749142,7.12857143 L48.749142,14.8142857 C48.749142,17.8142857 50.2274571,18.6285714 51.7057722,18.6285714 C53.3706708,18.6285714 54.8920437,17.6 56.0689548,15.8714286 Z M66.3884555,6.97142857 C69.7900156,7.05714286 72.1151326,9.77142857 71.6702028,13.7571429 L61.5085803,13.7571429 C61.4942278,16.1 63.1591264,18.5857143 66.4889236,18.7 C67.9672387,18.7571429 69.3450858,18.3142857 70.450234,17.7285714 L70.9382215,18.9 C69.8330733,19.5 68.2542902,20.0571429 66.4171607,19.9857143 C62.1687988,19.8571429 59.9872075,16.5285714 60.1307332,12.9857143 C60.274259,9.01428571 63.2308892,6.85714286 66.3884555,6.97142857 Z M61.5659906,12.6 L70.3641186,12.6 C70.4215289,10.4 68.8858034,8.31428571 66.2736349,8.22857143 C63.7332293,8.14285714 61.7382215,10.0285714 61.5659906,12.6 Z M80.898908,6.94285714 C83.4393136,6.94285714 84.9319813,8.84285714 84.9176287,11.6571429 L84.9176287,19.7428571 L83.525429,19.7428571 L83.525429,11.9571429 C83.525429,9.22857143 82.1188768,8.25714286 80.5975039,8.24285714 C78.7603744,8.22857143 77.1098284,9.65714286 76.2486739,11.0857143 L76.2486739,19.7428571 L74.8421217,19.7428571 L74.8421217,0.0571428571 L76.2486739,0.0571428571 L76.2486739,9.6 C77.2964119,8.02857143 78.975663,6.94285714 80.898908,6.94285714 Z M93.3138846,6.94285714 C96.5719189,6.94285714 99.4137285,9.34285714 99.4137285,13.4285714 C99.4137285,17.6 96.5719189,19.9428571 93.3138846,19.9428571 C89.6683307,19.9428571 87.2140406,17.0285714 87.2140406,13.4285714 C87.2140406,9.6 89.9266771,6.94285714 93.3138846,6.94285714 Z M93.3138846,18.6285714 C96.2561622,18.6285714 98.0071763,16.2 98.0071763,13.4142857 C98.0071763,10.6142857 96.2705148,8.22857143 93.3138846,8.22857143 C90.2854914,8.22857143 88.6349454,10.6142857 88.6349454,13.4142857 C88.6349454,16.2 90.2711388,18.6285714 93.3138846,18.6285714 Z M106.661778,12.9857143 C109.704524,14.1857143 110.364743,15.5428571 110.364743,16.6714286 C110.364743,18.6571429 108.513261,19.9 106.044618,19.9 C104.652418,19.9 103.288924,19.5 102.025897,18.7571429 L102.628705,17.5571429 C103.676443,18.2714286 104.867707,18.6285714 106.00156,18.6285714 C107.321997,18.6285714 108.972543,18.0857143 108.95819,16.7571429 C108.95819,15.6285714 107.738222,14.7428571 105.800624,13.9857143 C103.647738,13.1285714 101.767551,12.3428571 101.767551,10.3285714 C101.767551,8.31428571 103.66209,6.97142857 106.159438,6.97142857 C107.465523,6.97142857 108.656786,7.35714286 109.675819,7.88571429 L109.144774,8.98571429 C108.34103,8.57142857 107.336349,8.24285714 106.202496,8.24285714 C104.10702,8.24285714 103.15975,9.25714286 103.15975,10.3285714 C103.15975,11.6857143 104.709828,12.1857143 106.661778,12.9857143 Z M120.49766,18.1428571 L120.899532,19.3714286 C120.05273,19.6857143 119.091108,19.9428571 118.086427,19.9285714 C115.804368,19.9285714 113.995944,18.5428571 113.995944,15.3 L113.995944,8.31428571 L111.728237,8.31428571 L111.728237,7.12857143 L113.995944,7.12857143 L113.995944,2.9 L115.402496,2.9 L115.402496,7.14285714 L119.593448,7.14285714 L119.593448,8.32857143 L115.402496,8.32857143 L115.402496,15.2142857 C115.402496,17.2428571 116.263651,18.5714286 118.115133,18.6285714 C118.904524,18.6714286 119.751326,18.4857143 120.49766,18.1428571 Z M0,0.0434782609 L5.55072464,0.0434782609 L5.55072464,5.5942029 L0,5.5942029 L0,0.0434782609 Z M7.15942029,0.0434782609 L12.7101449,0.0434782609 L12.7101449,5.5942029 L7.15942029,5.5942029 L7.15942029,0.0434782609 Z M14.3333333,0.0434782609 L19.884058,0.0434782609 L19.884058,5.5942029 L14.3333333,5.5942029 L14.3333333,0.0434782609 Z M0,7.23188406 L5.55072464,7.23188406 L5.55072464,12.7826087 L0,12.7826087 L0,7.23188406 Z M7.15942029,7.23188406 L12.7101449,7.23188406 L12.7101449,12.7826087 L7.15942029,12.7826087 L7.15942029,7.23188406 Z M14.3333333,7.23188406 L19.884058,7.23188406 L19.884058,12.7826087 L14.3333333,12.7826087 L14.3333333,7.23188406 Z M0,14.4202899 L5.55072464,14.4202899 L5.55072464,19.9710145 L0,19.9710145 L0,14.4202899 Z M7.15942029,14.4202899 L12.7101449,14.4202899 L12.7101449,19.9710145 L7.15942029,19.9710145 L7.15942029,14.4202899 Z M14.3333333,14.4202899 L19.884058,14.4202899 L19.884058,19.9710145 L14.3333333,19.9710145 L14.3333333,14.4202899 Z" id="bluehost"></path>
                    </g>
                </g>
            </g>
        </g>
    </g>
</svg>