<svg width="21" height="21" viewBox="0 0 21 21" fill="none" xmlns="http://www.w3.org/2000/svg">
<path fill-rule="evenodd" clip-rule="evenodd" d="M10.2562 5.18688C11.1933 5.18688 12.0624 5.42076 12.8634 5.8885C13.6644 6.35624 14.2992 6.98996 14.7678 7.78965C15.2363 8.58934 15.4706 9.45693 15.4706 10.3924C15.4706 11.3279 15.2363 12.1955 14.7678 12.9952C14.2992 13.7949 13.6644 14.4286 12.8634 14.8963C12.0624 15.3641 11.1933 15.5979 10.2562 15.5979C9.31916 15.5979 8.4501 15.3641 7.64906 14.8963C6.84802 14.4286 6.21323 13.7949 5.7447 12.9952C5.27616 12.1955 5.04189 11.3279 5.04189 10.3924C5.04189 9.45693 5.27616 8.58934 5.7447 7.78965C6.21323 6.98996 6.84802 6.35624 7.64906 5.8885C8.4501 5.42076 9.31916 5.18688 10.2562 5.18688ZM10.2562 13.7873C11.1933 13.7873 11.9943 13.4554 12.6594 12.7915C13.3244 12.1276 13.6569 11.3279 13.6569 10.3924C13.6569 9.45693 13.3244 8.65724 12.6594 7.99334C11.9943 7.32945 11.1933 6.9975 10.2562 6.9975C9.31916 6.9975 8.51812 7.32945 7.8531 7.99334C7.18808 8.65724 6.85558 9.45693 6.85558 10.3924C6.85558 11.3279 7.18808 12.1276 7.8531 12.7915C8.51812 13.4554 9.31916 13.7873 10.2562 13.7873ZM16.9215 4.96056C16.8913 5.2925 16.7628 5.57919 16.5361 5.8206C16.3094 6.06202 16.0298 6.18272 15.6973 6.18272C15.3648 6.18272 15.0776 6.06202 14.8358 5.8206C14.594 5.57919 14.473 5.2925 14.473 4.96056C14.473 4.62861 14.594 4.34193 14.8358 4.10051C15.0776 3.8591 15.3648 3.73839 15.6973 3.73839C16.0298 3.73839 16.317 3.8591 16.5588 4.10051C16.8006 4.34193 16.9215 4.62861 16.9215 4.96056ZM20.3675 6.18272C20.3977 7.02768 20.4129 8.43091 20.4129 10.3924C20.4129 12.3539 20.3902 13.7647 20.3448 14.6247C20.2995 15.4848 20.171 16.2317 19.9594 16.8654C19.6874 17.6198 19.2717 18.2762 18.7125 18.8344C18.1533 19.3927 17.4958 19.8076 16.7401 20.0792C16.1054 20.2905 15.3572 20.4187 14.4957 20.464C13.6342 20.5093 12.2211 20.5319 10.2562 20.5319C8.29141 20.5319 6.87825 20.5093 6.01675 20.464C5.15525 20.4187 4.4071 20.2754 3.77232 20.034C3.01661 19.7926 2.35915 19.3927 1.79994 18.8344C1.24072 18.2762 0.825082 17.6198 0.55303 16.8654C0.341433 16.2317 0.212965 15.4848 0.167622 14.6247C0.12228 13.7647 0.0996094 12.3539 0.0996094 10.3924C0.0996094 8.43091 0.12228 7.02014 0.167622 6.16009C0.212965 5.30005 0.341433 4.55317 0.55303 3.91945C0.825082 3.16503 1.24072 2.50868 1.79994 1.9504C2.35915 1.39213 3.01661 0.977193 3.77232 0.7056C4.4071 0.494361 5.15525 0.366109 6.01675 0.320843C6.87825 0.275578 8.29141 0.252945 10.2562 0.252945C12.2211 0.252945 13.6342 0.275578 14.4957 0.320843C15.3572 0.366109 16.1054 0.494361 16.7401 0.7056C17.4958 0.977193 18.1533 1.39213 18.7125 1.9504C19.2717 2.50868 19.6874 3.16503 19.9594 3.91945C20.171 4.55317 20.3071 5.30759 20.3675 6.18272ZM18.1911 16.3675C18.3725 15.8545 18.4934 15.0397 18.5538 13.9231C18.5841 13.2592 18.5992 12.3237 18.5992 11.1167V9.66817C18.5992 8.43091 18.5841 7.49542 18.5538 6.86171C18.4934 5.71498 18.3725 4.9002 18.1911 4.41737C17.8284 3.48188 17.1785 2.83308 16.2414 2.47095C15.7577 2.28989 14.9416 2.16918 13.7929 2.10883C13.1279 2.07865 12.1908 2.06356 10.9817 2.06356H9.53076C8.32164 2.06356 7.38457 2.07865 6.71955 2.10883C5.60111 2.16918 4.78496 2.28989 4.27108 2.47095C3.33401 2.83308 2.68411 3.48188 2.32137 4.41737C2.14 4.9002 2.01909 5.71498 1.95863 6.86171C1.92841 7.5256 1.91329 8.46109 1.91329 9.66817V11.1167C1.91329 12.3237 1.92841 13.2592 1.95863 13.9231C2.01909 15.0397 2.14 15.8545 2.32137 16.3675C2.71433 17.3029 3.36424 17.9518 4.27108 18.3139C4.78496 18.4949 5.60111 18.6156 6.71955 18.676C7.38457 18.7062 8.32164 18.7213 9.53076 18.7213H10.9817C12.2211 18.7213 13.1581 18.7062 13.7929 18.676C14.9416 18.6156 15.7577 18.4949 16.2414 18.3139C17.1785 17.9216 17.8284 17.2728 18.1911 16.3675Z" fill="white"/>
</svg>
