<svg width="21" height="21" viewBox="0 0 21 21" fill="none" xmlns="http://www.w3.org/2000/svg">
<path fill-rule="evenodd" clip-rule="evenodd" d="M5.15823 20.5319H0.941418V6.9975H5.15823V20.5319ZM3.07249 5.14162C2.40748 5.14162 1.83315 4.9002 1.3495 4.41737C0.865847 3.93454 0.624023 3.36118 0.624023 2.69728C0.624023 2.03339 0.865847 1.46003 1.3495 0.977193C1.83315 0.494361 2.40748 0.252945 3.07249 0.252945C3.73751 0.252945 4.31184 0.494361 4.79549 0.977193C5.27914 1.46003 5.52097 2.03339 5.52097 2.69728C5.52097 3.36118 5.27914 3.93454 4.79549 4.41737C4.31184 4.9002 3.73751 5.14162 3.07249 5.14162ZM20.9373 20.5319H16.7205V13.9231C16.7205 12.8368 16.6298 12.0522 16.4484 11.5693C16.1159 10.7545 15.466 10.3472 14.4987 10.3472C13.5314 10.3472 12.8513 10.7093 12.4583 11.4335C12.156 11.9767 12.0049 12.7764 12.0049 13.8326V20.5319H7.83341V6.9975H11.8689V8.85339H11.9142C12.2165 8.24985 12.7001 7.75193 13.3651 7.35963C14.0906 6.8768 14.937 6.63538 15.9043 6.63538C17.8691 6.63538 19.2445 7.25401 20.0304 8.49127C20.635 9.48711 20.9373 11.0261 20.9373 13.1083V20.5319Z" fill="white"/>
</svg>
