<svg width="19" height="25" viewBox="0 0 19 25" fill="none" xmlns="http://www.w3.org/2000/svg">
<path fill-rule="evenodd" clip-rule="evenodd" d="M10.0778 0.923172C11.537 0.954165 12.9107 1.28733 14.1991 1.92268C15.4874 2.55802 16.5041 3.43356 17.2492 4.54929C18.0564 5.75799 18.46 7.11391 18.46 8.61704C18.46 10.1202 18.2116 11.5381 17.7149 12.8708C17.1561 14.3274 16.3644 15.4741 15.3399 16.3109C14.1913 17.2407 12.8408 17.7056 11.2886 17.7056C10.6677 17.7056 10.0468 17.5584 9.42591 17.2639C8.80501 16.9695 8.35486 16.5589 8.07546 16.032L7.70292 17.5196C7.29933 19.1312 6.97336 20.247 6.725 20.8668C6.35247 21.7036 5.685 22.7728 4.72261 24.0745L4.53634 24.1675L4.39664 24.028L4.35007 23.3307C4.25694 22.4629 4.21037 21.8121 4.21037 21.3782C4.21037 20.4484 4.3656 19.2397 4.67604 17.7521C4.86231 16.8843 5.17276 15.5981 5.60739 13.8935L6.1662 11.662C5.85575 11.0732 5.70052 10.2984 5.70052 9.33762C5.70052 8.43884 5.93336 7.69502 6.39903 7.10616C6.80262 6.61028 7.29933 6.30036 7.88919 6.17639C8.47904 6.05242 8.99128 6.16089 9.42591 6.50181C9.86053 6.84273 10.0778 7.38509 10.0778 8.12891C10.0778 8.53181 10.0158 8.9812 9.89158 9.47708C9.82949 9.75601 9.68979 10.1899 9.47247 10.7788C9.25516 11.3676 9.11546 11.8015 9.05337 12.0804C8.92919 12.5763 8.8671 13.0102 8.8671 13.3821C8.8671 13.971 9.07665 14.4591 9.49576 14.8465C9.91486 15.2339 10.4193 15.4276 11.0092 15.4276C12.0026 15.4276 12.8408 14.9937 13.5238 14.1259C14.1137 13.4131 14.5483 12.4524 14.8277 11.2437C15.0761 10.2519 15.2002 9.27563 15.2002 8.31487C15.2002 6.70326 14.6958 5.44807 13.6868 4.54929C12.6779 3.65051 11.3507 3.20112 9.70531 3.20112C8.49456 3.20112 7.38471 3.48005 6.37575 4.03791C5.36679 4.59577 4.58291 5.35509 4.0241 6.31585C3.4653 7.27662 3.18589 8.37685 3.18589 9.61655C3.18589 10.1434 3.27903 10.6548 3.4653 11.1507C3.55843 11.4296 3.72918 11.7705 3.97754 12.1734C4.1638 12.4833 4.25694 12.6848 4.25694 12.7778C4.25694 13.0257 4.19485 13.3356 4.07067 13.7075C3.91545 14.1724 3.7447 14.4049 3.55843 14.4049C3.15485 14.4049 2.72022 14.1957 2.25455 13.7773C1.78887 13.3589 1.40081 12.7933 1.09036 12.0804C0.748872 11.2437 0.578125 10.3139 0.578125 9.29113C0.578125 7.61754 1.0438 6.1299 1.97514 4.82822C2.8444 3.61951 4.00858 2.6665 5.46769 1.96917C6.9268 1.27184 8.46352 0.923172 10.0778 0.923172Z" fill="white"/>
</svg>
