<svg width="24" height="18" viewBox="0 0 24 18" fill="none" xmlns="http://www.w3.org/2000/svg">
<path fill-rule="evenodd" clip-rule="evenodd" d="M23.5071 3.50968C23.7095 4.28884 23.854 5.47201 23.9407 7.05918L23.9841 9.22352L23.9407 11.3879C23.854 13.0039 23.7095 14.2015 23.5071 14.9806C23.3626 15.4712 23.1024 15.9041 22.7266 16.2792C22.3508 16.6544 21.9028 16.9141 21.3825 17.0584C20.6309 17.2604 18.8676 17.4047 16.0926 17.4913L12.1468 17.5346L8.20107 17.4913C5.42604 17.4047 3.66273 17.2604 2.91116 17.0584C2.39085 16.9141 1.94279 16.6544 1.56701 16.2792C1.19122 15.9041 0.931062 15.4712 0.786529 14.9806C0.584183 14.2015 0.43965 13.0039 0.35293 11.3879L0.30957 9.22352C0.30957 8.58865 0.324023 7.8672 0.35293 7.05918C0.43965 5.47201 0.584183 4.28884 0.786529 3.50968C0.931062 2.99024 1.19122 2.54294 1.56701 2.16779C1.94279 1.79264 2.39085 1.53292 2.91116 1.38863C3.66273 1.18662 5.42604 1.04234 8.20107 0.955762L12.1468 0.912476L16.0926 0.955762C18.8676 1.04234 20.6309 1.18662 21.3825 1.38863C21.9028 1.53292 22.3508 1.79264 22.7266 2.16779C23.1024 2.54294 23.3626 2.99024 23.5071 3.50968ZM9.71867 12.773L15.9191 9.22352L9.71867 5.7173V12.773Z" fill="white"/>
</svg>
